<svg id="Grupo_2278" data-name="Grupo 2278" xmlns="http://www.w3.org/2000/svg" width="45" height="57.548" viewBox="0 0 45 57.548">
  <path id="Caminho_388" data-name="Caminho 388" d="M125.361,157.143l8.05,17.263,6.541-5.993,8.8-1.158-7.832-16.8c-6.343-.054-11.511,2.011-15.236,6.684" transform="translate(-103.747 -116.858)" fill="#ed6362"/>
  <path id="Caminho_389" data-name="Caminho 389" d="M50.868,156.833,42.818,174.1,36.277,168.1l-8.8-1.158,7.832-16.8C43.131,149.558,48.424,151.671,50.868,156.833Z" transform="translate(-27.481 -116.549)" fill="#e95454"/>
  <path id="Caminho_390" data-name="Caminho 390" d="M108.471,42.145a21.072,21.072,0,0,0,0-42.145C101.529,14.378,100.976,28.453,108.471,42.145Z" transform="translate(-86.699)" fill="#ffcc5b"/>
  <path id="Caminho_391" data-name="Caminho 391" d="M57.7,42.145A21.072,21.072,0,0,1,57.7,0V42.123" transform="translate(-34.471)" fill="#fdbc4b"/>
  <path id="Caminho_392" data-name="Caminho 392" d="M71.894,88.792a.685.685,0,0,1-.184-.026,15.445,15.445,0,0,1-10.526-19.11.66.66,0,1,1,1.268.368A14.123,14.123,0,0,0,72.078,87.5a.66.66,0,0,1-.183,1.294Z" transform="translate(-53.103 -53.638)" fill="#ec9922"/>
  <path id="Caminho_393" data-name="Caminho 393" d="M151.4,46.036a.652.652,0,0,1-.184-.026.661.661,0,0,1-.451-.818,14.106,14.106,0,0,0-9.625-17.474.66.66,0,1,1,.367-1.268,15.428,15.428,0,0,1,10.527,19.109A.66.66,0,0,1,151.4,46.036Z" transform="translate(-115.112 -20.197)" fill="#ec9922"/>
  <path id="Caminho_394" data-name="Caminho 394" d="M103.347,56.188l-.093-.2a1.735,1.735,0,0,0-.352-.5,1.762,1.762,0,0,0,.246-1.871l-.093-.2a1.752,1.752,0,0,0-.85-.849,1.745,1.745,0,0,0-.123-1.123l-.093-.2a1.751,1.751,0,0,0-.912-.877,1.751,1.751,0,0,0-.135-1.059l-.093-.2a1.761,1.761,0,0,0-2.338-.85l-3.5,1.641c-.924-2.469-1.84-3.727-2.933-4.05a2.411,2.411,0,0,0-2.211.585l-.393.308.189.462c.786,1.92.841,4.681.239,5.86a1.322,1.322,0,0,0-1.428-.185L84.3,54.827a1.351,1.351,0,0,0-.674.688,1.217,1.217,0,0,0,.009.995l3.644,7.813a1.22,1.22,0,0,0,.756.646,1.315,1.315,0,0,0,.382.056A1.359,1.359,0,0,0,89,64.9l4.17-1.944a1.331,1.331,0,0,0,.77-1.061h.009a7.014,7.014,0,0,0,2.935-.747l5.613-2.617a1.763,1.763,0,0,0,.852-2.339Z" transform="translate(-71.044 -35.485)" fill="#ec9922"/>
</svg>
