<svg id="Grupo_2279" data-name="Grupo 2279" xmlns="http://www.w3.org/2000/svg" width="44.973" height="57.514" viewBox="0 0 44.973 57.514">
  <path id="Caminho_395" data-name="Caminho 395" d="M125.361,156.929l7.793,16.713,6.332-5.8L148,166.719l-7.582-16.26c-6.141-.052-11.144,1.947-14.75,6.471" transform="translate(-103.029 -116.129)" fill="#ed6362"/>
  <path id="Caminho_396" data-name="Caminho 396" d="M50.122,156.617,42.329,173.33,36,167.528l-8.515-1.122,7.582-16.26C42.632,149.574,47.756,151.619,50.122,156.617Z" transform="translate(-27.481 -115.816)" fill="#e95454"/>
  <path id="Caminho_397" data-name="Caminho 397" d="M108.3,40.8a20.4,20.4,0,0,0,0-40.8C101.578,13.92,101.042,27.545,108.3,40.8Z" transform="translate(-85.812)" fill="#ffcc5b"/>
  <path id="Caminho_398" data-name="Caminho 398" d="M57.026,40.8a20.4,20.4,0,0,1,0-40.8V40.78" transform="translate(-34.54)" fill="#fdbc4b"/>
  <path id="Caminho_399" data-name="Caminho 399" d="M71.533,88.166a.663.663,0,0,1-.178-.025,14.953,14.953,0,0,1-10.191-18.5A.639.639,0,0,1,62.392,70a13.672,13.672,0,0,0,9.319,16.916.639.639,0,0,1-.178,1.253Z" transform="translate(-53.023 -53.396)" fill="#ec9922"/>
  <path id="Caminho_400" data-name="Caminho 400" d="M151.055,45.411a.632.632,0,0,1-.178-.026.64.64,0,0,1-.436-.792,13.656,13.656,0,0,0-9.318-16.917.639.639,0,1,1,.355-1.228,14.936,14.936,0,0,1,10.191,18.5A.639.639,0,0,1,151.055,45.411Z" transform="translate(-114.837 -20.395)" fill="#ec9922"/>
  <path id="Caminho_401" data-name="Caminho 401" d="M101.631,67.765a.64.64,0,0,1-.559-.95l4.3-7.746L102.092,57.2a.639.639,0,0,1-.1-1.042l9.06-7.694a.639.639,0,0,1,.994.756l-3.218,6.94,3.257,1.768a.639.639,0,0,1,.109,1.048l-10.151,8.64A.639.639,0,0,1,101.631,67.765Z" transform="translate(-84.219 -37.287)" fill="#ec9922"/>
</svg>
