<svg id="Grupo_2282" data-name="Grupo 2282" xmlns="http://www.w3.org/2000/svg" width="45.021" height="57.575" viewBox="0 0 45.021 57.575">
  <path id="Caminho_419" data-name="Caminho 419" d="M125.361,156.936l7.8,16.731,6.339-5.808,8.524-1.123-7.59-16.278c-6.147-.052-11.156,1.949-14.766,6.478" transform="translate(-103.005 -116.092)" fill="#ed6362"/>
  <path id="Caminho_420" data-name="Caminho 420" d="M50.146,156.624l-7.8,16.731-6.339-5.808-8.524-1.123,7.59-16.278C42.648,149.574,47.778,151.621,50.146,156.624Z" transform="translate(-27.481 -115.78)" fill="#e95454"/>
  <path id="Caminho_421" data-name="Caminho 421" d="M108.3,40.844A20.422,20.422,0,0,0,108.3,0C101.576,13.934,101.04,27.575,108.3,40.844Z" transform="translate(-85.794)" fill="#ffcc5b"/>
  <path id="Caminho_422" data-name="Caminho 422" d="M57.048,40.844A20.422,20.422,0,0,1,57.048,0V40.823" transform="translate(-34.537)" fill="#fdbc4b"/>
  <path id="Caminho_423" data-name="Caminho 423" d="M71.545,88.187a.664.664,0,0,1-.178-.025,14.969,14.969,0,0,1-10.2-18.52A.64.64,0,1,1,62.394,70a13.687,13.687,0,0,0,9.329,16.934.64.64,0,0,1-.178,1.255Z" transform="translate(-53.015 -53.379)" fill="#ec9922"/>
  <path id="Caminho_424" data-name="Caminho 424" d="M151.066,45.431a.632.632,0,0,1-.178-.026.641.641,0,0,1-.437-.793,13.671,13.671,0,0,0-9.328-16.935.64.64,0,1,1,.356-1.229,14.952,14.952,0,0,1,10.2,18.519A.64.64,0,0,1,151.066,45.431Z" transform="translate(-114.81 -20.389)" fill="#ec9922"/>
  <path id="Caminho_425" data-name="Caminho 425" d="M100.757,66.571a.638.638,0,0,1-.3-.074l-4.88-2.565L90.7,66.5a.64.64,0,0,1-.928-.674L90.7,60.39l-3.947-3.848a.64.64,0,0,1,.355-1.091l5.455-.793,2.439-4.943a.64.64,0,0,1,.574-.357h0a.639.639,0,0,1,.574.357l2.439,4.943,5.455.793a.64.64,0,0,1,.355,1.091l-3.948,3.848.932,5.433a.638.638,0,0,1-.631.747Z" transform="translate(-73.069 -38.085)" fill="#ec9922"/>
</svg>
