<svg id="Grupo_2280" data-name="Grupo 2280" xmlns="http://www.w3.org/2000/svg" width="44.902" height="57.423" viewBox="0 0 44.902 57.423">
  <path id="Caminho_402" data-name="Caminho 402" d="M125.361,156.919l7.781,16.686,6.322-5.793,8.5-1.12-7.57-16.235c-6.131-.052-11.127,1.943-14.727,6.461" transform="translate(-103.064 -116.183)" fill="#ed6362"/>
  <path id="Caminho_403" data-name="Caminho 403" d="M50.086,156.607l-7.781,16.686L35.983,167.5l-8.5-1.12,7.57-16.235C42.608,149.575,47.724,151.617,50.086,156.607Z" transform="translate(-27.481 -115.87)" fill="#e95454"/>
  <path id="Caminho_404" data-name="Caminho 404" d="M108.29,40.736A20.368,20.368,0,0,0,108.29,0C101.58,13.9,101.046,27.5,108.29,40.736Z" transform="translate(-85.839)" fill="#ffcc5b"/>
  <path id="Caminho_405" data-name="Caminho 405" d="M56.994,40.736A20.368,20.368,0,0,1,56.994,0V40.715" transform="translate(-34.543)" fill="#fdbc4b"/>
  <path id="Caminho_406" data-name="Caminho 406" d="M71.516,88.137a.662.662,0,0,1-.178-.025A14.929,14.929,0,0,1,61.163,69.641.638.638,0,1,1,62.389,70a13.651,13.651,0,0,0,9.3,16.889.638.638,0,0,1-.177,1.251Z" transform="translate(-53.035 -53.42)" fill="#ec9922"/>
  <path id="Caminho_407" data-name="Caminho 407" d="M151.038,45.381a.631.631,0,0,1-.177-.026.639.639,0,0,1-.436-.791,13.635,13.635,0,0,0-9.3-16.89.638.638,0,1,1,.355-1.226,14.912,14.912,0,0,1,10.175,18.47A.638.638,0,0,1,151.038,45.381Z" transform="translate(-114.878 -20.405)" fill="#ec9922"/>
  <path id="Caminho_408" data-name="Caminho 408" d="M94.738,75.056a.64.64,0,0,1-.5-.246L85.639,63.792a.638.638,0,0,1,.034-.824l3.952-4.295a.637.637,0,0,1,.47-.206h9.287a.638.638,0,0,1,.47.206l3.951,4.295a.638.638,0,0,1,.033.824L95.241,74.81A.641.641,0,0,1,94.738,75.056Z" transform="translate(-72.287 -45.148)" fill="#ec9922"/>
</svg>
