<svg id="Grupo_2284" data-name="Grupo 2284" xmlns="http://www.w3.org/2000/svg" width="44.977" height="57.519" viewBox="0 0 44.977 57.519">
  <path id="Caminho_433" data-name="Caminho 433" d="M125.361,156.93l7.794,16.714,6.333-5.8L148,166.72l-7.583-16.262c-6.141-.052-11.145,1.947-14.752,6.472" transform="translate(-103.026 -116.125)" fill="#ed6362"/>
  <path id="Caminho_434" data-name="Caminho 434" d="M50.124,156.618,42.33,173.332,36,167.53l-8.516-1.122,7.583-16.262C42.633,149.574,47.758,151.619,50.124,156.618Z" transform="translate(-27.481 -115.813)" fill="#e95454"/>
  <path id="Caminho_435" data-name="Caminho 435" d="M108.3,40.8a20.4,20.4,0,0,0,0-40.8C101.578,13.921,101.042,27.548,108.3,40.8Z" transform="translate(-85.811)" fill="#ffcc5b"/>
  <path id="Caminho_436" data-name="Caminho 436" d="M57.028,40.8a20.4,20.4,0,0,1,0-40.8V40.784" transform="translate(-34.539)" fill="#fdbc4b"/>
  <path id="Caminho_437" data-name="Caminho 437" d="M71.534,88.168a.663.663,0,0,1-.178-.025,14.954,14.954,0,0,1-10.192-18.5A.639.639,0,1,1,62.392,70a13.674,13.674,0,0,0,9.32,16.918.639.639,0,0,1-.178,1.253Z" transform="translate(-53.022 -53.394)" fill="#ec9922"/>
  <path id="Caminho_438" data-name="Caminho 438" d="M151.056,45.413a.632.632,0,0,1-.178-.026.64.64,0,0,1-.436-.792,13.657,13.657,0,0,0-9.319-16.918.639.639,0,1,1,.355-1.228,14.937,14.937,0,0,1,10.192,18.5A.639.639,0,0,1,151.056,45.413Z" transform="translate(-114.835 -20.395)" fill="#ec9922"/>
  <path id="Caminho_439" data-name="Caminho 439" d="M95.161,78.355a1.331,1.331,0,0,1-.989-.441l-4.165-4.586a1.331,1.331,0,0,1-.348-.9V69.408a1.337,1.337,0,0,1,2.326-.9l3.133,3.449a.059.059,0,0,0,.081.005l8.854-7.607a1.336,1.336,0,0,1,2.207,1.014v3.257a1.337,1.337,0,0,1-.465,1.014l-9.763,8.388A1.333,1.333,0,0,1,95.161,78.355Z" transform="translate(-75.471 -49.421)" fill="#ec9922"/>
</svg>
