<svg id="Grupo_2281" data-name="Grupo 2281" xmlns="http://www.w3.org/2000/svg" width="45.043" height="57.602" viewBox="0 0 45.043 57.602">
  <path id="Caminho_409" data-name="Caminho 409" d="M125.361,156.939l7.805,16.739,6.342-5.811,8.528-1.123-7.594-16.285c-6.15-.052-11.161,1.95-14.773,6.481" transform="translate(-102.994 -116.076)" fill="#ed6362"/>
  <path id="Caminho_410" data-name="Caminho 410" d="M50.157,156.627l-7.805,16.739-6.342-5.811-8.528-1.123,7.594-16.285C42.655,149.573,47.788,151.622,50.157,156.627Z" transform="translate(-27.481 -115.763)" fill="#e95454"/>
  <path id="Caminho_411" data-name="Caminho 411" d="M108.307,40.864a20.432,20.432,0,0,0,0-40.864C101.576,13.941,101.039,27.588,108.307,40.864Z" transform="translate(-85.786)" fill="#ffcc5b"/>
  <path id="Caminho_412" data-name="Caminho 412" d="M57.058,40.864A20.432,20.432,0,0,1,57.058,0V40.843" transform="translate(-34.536)" fill="#fdbc4b"/>
  <path id="Caminho_413" data-name="Caminho 413" d="M71.55,88.2a.664.664,0,0,1-.179-.025A14.976,14.976,0,0,1,61.165,69.642.64.64,0,1,1,62.394,70a13.693,13.693,0,0,0,9.333,16.942A.64.64,0,0,1,71.55,88.2Z" transform="translate(-53.011 -53.371)" fill="#ec9922"/>
  <path id="Caminho_414" data-name="Caminho 414" d="M151.071,45.44a.633.633,0,0,1-.178-.026.641.641,0,0,1-.437-.793,13.677,13.677,0,0,0-9.333-16.943.64.64,0,1,1,.356-1.229,14.959,14.959,0,0,1,10.207,18.528A.64.64,0,0,1,151.071,45.44Z" transform="translate(-114.797 -20.386)" fill="#ec9922"/>
  <path id="Caminho_415" data-name="Caminho 415" d="M108.376,79.043h-2.3V76.89h1.128a.64.64,0,1,0,0-1.28H106.08V73.457h2.41a.64.64,0,1,0,0-1.28h-2.935a.15.15,0,0,1-.115,0,.64.64,0,0,0-.64.64v6.866a.64.64,0,0,0,.64.64h2.935a.64.64,0,1,0,0-1.28Z" transform="translate(-87.132 -55.683)" fill="#ec9922"/>
  <path id="Caminho_416" data-name="Caminho 416" d="M84.778,74.644v-.657a1.813,1.813,0,0,0-1.811-1.811H80.833a.64.64,0,0,0-.64.64v6.866a.64.64,0,0,0,.64.64h2.135a1.813,1.813,0,0,0,1.811-1.811v-.657A2.237,2.237,0,0,0,84.1,76.25,2.236,2.236,0,0,0,84.778,74.644ZM83.5,77.856v.657a.531.531,0,0,1-.531.531h-1.5V76.89h1.06A.967.967,0,0,1,83.5,77.856ZM81.473,75.61V73.457h1.5a.531.531,0,0,1,.531.531v.657a.967.967,0,0,1-.966.966Z" transform="translate(-68.147 -55.683)" fill="#ec9922"/>
  <path id="Caminho_417" data-name="Caminho 417" d="M130.259,80.325h-2.171a.64.64,0,1,1,0-1.28h2.171a.124.124,0,0,0,.124-.124v-1.9a.124.124,0,0,0-.124-.124h-1.406a1.406,1.406,0,0,1-1.4-1.4v-1.9a1.406,1.406,0,0,1,1.4-1.4h2.171a.64.64,0,1,1,0,1.28h-2.171a.124.124,0,0,0-.124.124v1.9a.125.125,0,0,0,.124.125h1.406a1.406,1.406,0,0,1,1.4,1.4v1.9A1.406,1.406,0,0,1,130.259,80.325Z" transform="translate(-104.604 -55.685)" fill="#ec9922"/>
  <path id="Caminho_418" data-name="Caminho 418" d="M154.048,72.177h-3.812a.64.64,0,1,0,0,1.28H151.5v6.226a.64.64,0,1,0,1.28,0V73.457h1.267a.64.64,0,1,0,0-1.28Z" transform="translate(-121.691 -55.683)" fill="#ec9922"/>
</svg>
