<svg xmlns="http://www.w3.org/2000/svg" width="37.622" height="25.612" viewBox="0 0 37.622 25.612">
  <path id="Caminho_359" data-name="Caminho 359" d="M18.073.033a1.326,1.326,0,0,0-.73.436,1.323,1.323,0,0,0-.4.629,1.718,1.718,0,0,0,.737,2.024c.124.088.2.157.2.182,0,.083-.092.835-.137,1.123a17.267,17.267,0,0,1-1.42,4.723c-.535,1.166-1.159,1.75-1.947,1.822a2.882,2.882,0,0,1-1.851-.775c-.088-.07-.236-.182-.328-.249A4.869,4.869,0,0,1,10.426,7.8l-.067-.168.09-.175a2.224,2.224,0,0,0,.133-1.8c-.052-.16-.067-.182-.29-.406A1.389,1.389,0,0,0,9.3,4.743a1.524,1.524,0,0,0-.8.2,1.294,1.294,0,0,0-.4.274,1.61,1.61,0,0,0-.532,1.276,1.438,1.438,0,0,0,.15.755,1.657,1.657,0,0,0,.885.793,2.94,2.94,0,0,0,.593.151c.038.007.049.036.074.182A7.1,7.1,0,0,1,9.235,11.1c-.022.11-.058.292-.079.4a2.792,2.792,0,0,1-.254.766,1.607,1.607,0,0,1-.678.678,1.821,1.821,0,0,1-1,.2,4.318,4.318,0,0,1-.591-.029A10.616,10.616,0,0,1,4.4,12.085a8.694,8.694,0,0,1-1.487-1.047c0-.014.025-.106.049-.2a1.79,1.79,0,0,0-.312-1.563,1.353,1.353,0,0,0-.71-.517A1.09,1.09,0,0,0,1.509,8.7a1.567,1.567,0,0,0-.734.16,1.516,1.516,0,0,0-.746.97A2.054,2.054,0,0,0,.3,11.209a1.807,1.807,0,0,0,.573.537,1.147,1.147,0,0,0,.739.162c.186,0,.371-.007.413-.011L2.1,11.89l.211.472c1.478,3.288,3.6,8.243,5.256,12.275.216.526.4.964.411.975a4.518,4.518,0,0,0,.633-.128c1.038-.252,1.348-.317,2.3-.485a42.488,42.488,0,0,1,6.473-.633c1.444-.043,4.324.007,5.948.1a48.023,48.023,0,0,1,6.017.743c.294.056.537.1.541.094s.155-.422.337-.928c1.512-4.207,3.219-8.4,5-12.3l.323-.708.3-.016c.838-.043,1.352-.281,1.559-.725a1.863,1.863,0,0,0,.207-.831,1.578,1.578,0,0,0-.193-.9A1.511,1.511,0,0,0,35.332,8.1a1.692,1.692,0,0,0-.977,1.087,2.092,2.092,0,0,0-.011.73c.016.074.054.229.088.346l.058.211-.135.121a10.975,10.975,0,0,1-2.246,1.53,3.8,3.8,0,0,1-2.219.7,1.743,1.743,0,0,1-1.485-1.213,2.88,2.88,0,0,1-.222-.829,10.291,10.291,0,0,1-.148-2.426c.036-.485.027-.458.175-.505A2.078,2.078,0,0,0,29.562,6.8,1.492,1.492,0,0,0,29.4,5.513a2.676,2.676,0,0,0-.559-.591,1.594,1.594,0,0,0-.921-.285,1.314,1.314,0,0,0-.694.157,1.119,1.119,0,0,0-.409.3,1.262,1.262,0,0,0-.314.443l-.119.245,0,.4a2.047,2.047,0,0,0,.04.55,1.991,1.991,0,0,0,.319.636l.1.121-.133.24a5.963,5.963,0,0,1-1.1,1.4,5.039,5.039,0,0,1-1.813,1.408c-1.042.416-1.943-.058-2.7-1.413a16.849,16.849,0,0,1-1.24-3.335c-.209-.68-.741-2.522-.741-2.567,0-.016.031-.052.07-.081s.139-.119.227-.2a1.885,1.885,0,0,0,.672-1.716A1.614,1.614,0,0,0,19.3.147a1.735,1.735,0,0,0-.314-.114A3.156,3.156,0,0,0,18.073.033Z" fill="#d49c03"/>
</svg>
